<svg width="69" height="61" viewBox="0 0 69 61" xmlns="http://www.w3.org/2000/svg">
<path d="M34.5393 33.4719C21.5724 33.4719 9.82974 37.8661 1.28541 44.9917C0.906845 45.3066 0.867926 45.8692 1.18635 46.2442C4.25735 49.9096 8.15626 53.0407 12.6495 55.4537C12.9927 55.6376 13.4208 55.5704 13.6933 55.298C17.5426 51.4486 21.1656 46.6688 26.2639 44.4186C26.653 44.2452 27.0988 44.5353 27.0988 44.9599V59.4799C27.0988 59.9222 27.4173 60.3008 27.856 60.3609C30.0283 60.6652 32.2608 60.8209 34.5393 60.8209C36.8178 60.8209 39.0503 60.6652 41.2226 60.3609C41.6614 60.2972 41.9798 59.9187 41.9798 59.4799V44.9599C41.9798 44.5353 42.4256 44.2452 42.8147 44.4186C47.913 46.6688 51.536 51.4486 55.3854 55.298C55.6613 55.574 56.0859 55.6376 56.4291 55.4537C60.9224 53.0407 64.8213 49.9096 67.8923 46.2442C68.2107 45.8692 68.1718 45.3066 67.7932 44.9917C59.2489 37.8661 47.5026 33.4719 34.5393 33.4719Z" fill="#FF7200"/>
<path d="M34.5392 28.2073C47.5061 28.2073 59.2488 23.8131 67.7931 16.6875C68.1717 16.3726 68.2106 15.8101 67.8922 15.4351C64.8212 11.7697 60.9223 8.63851 56.429 6.22558C56.0858 6.0416 55.6577 6.10883 55.3853 6.38125C51.5359 10.2306 47.913 15.0105 42.8147 17.2607C42.4255 17.434 41.9797 17.1439 41.9797 16.7194V2.19931C41.9797 1.75706 41.6613 1.37849 41.2226 1.31834C39.0502 1.01407 36.8177 0.858398 34.5392 0.858398C32.2607 0.858398 30.0282 1.01407 27.8559 1.31834C27.4172 1.38203 27.0988 1.76059 27.0988 2.19931V16.7194C27.0988 17.1439 26.653 17.434 26.2638 17.2607C21.1655 15.0105 17.5426 10.2306 13.6932 6.38125C13.4172 6.10529 12.9927 6.0416 12.6495 6.22558C8.15264 8.63851 4.25374 11.7697 1.18274 15.4351C0.864314 15.8101 0.903232 16.3726 1.2818 16.6875C9.82613 23.8131 21.5724 28.2073 34.5357 28.2073H34.5392Z" fill="#FF7200"/>
</svg>
